<mxfile host="app.diagrams.net" modified="2023-09-06T09:00:04.005Z" agent="Mozilla/5.0 (Windows NT 10.0; Win64; x64) AppleWebKit/537.36 (KHTML, like Gecko) Chrome/116.0.0.0 Safari/537.36 Edg/116.0.1938.69" etag="BwTjagS1aQEAUfdNI3RG" version="21.7.2" type="github">
  <diagram name="第 1 页" id="of_u2a-HevSLXb5JmTBJ">
    <mxGraphModel dx="1798" dy="1025" grid="1" gridSize="10" guides="1" tooltips="1" connect="1" arrows="1" fold="1" page="1" pageScale="1" pageWidth="827" pageHeight="1169" math="0" shadow="0">
      <root>
        <mxCell id="0" />
        <mxCell id="1" parent="0" />
        <mxCell id="MiAkfj99nP1WBbbSjiAf-1" value="" style="ellipse;html=1;shape=startState;fillColor=#000000;strokeColor=#ff0000;fontSize=15;" vertex="1" parent="1">
          <mxGeometry x="110" y="225" width="30" height="30" as="geometry" />
        </mxCell>
        <mxCell id="MiAkfj99nP1WBbbSjiAf-2" value="" style="edgeStyle=orthogonalEdgeStyle;html=1;verticalAlign=bottom;endArrow=open;endSize=8;strokeColor=#ff0000;rounded=0;entryX=0;entryY=0.5;entryDx=0;entryDy=0;exitX=0.858;exitY=0.514;exitDx=0;exitDy=0;exitPerimeter=0;fontSize=15;" edge="1" parent="1" source="MiAkfj99nP1WBbbSjiAf-1" target="MiAkfj99nP1WBbbSjiAf-3">
          <mxGeometry relative="1" as="geometry">
            <mxPoint x="255" y="220" as="targetPoint" />
            <mxPoint x="60" y="240" as="sourcePoint" />
            <Array as="points" />
          </mxGeometry>
        </mxCell>
        <mxCell id="MiAkfj99nP1WBbbSjiAf-3" value="获取用户&lt;br&gt;使用流量数据" style="rounded=1;whiteSpace=wrap;html=1;arcSize=40;fontColor=#000000;fillColor=#ffffc0;strokeColor=#ff0000;fontSize=15;" vertex="1" parent="1">
          <mxGeometry x="195" y="220" width="120" height="40" as="geometry" />
        </mxCell>
        <mxCell id="MiAkfj99nP1WBbbSjiAf-4" value="" style="edgeStyle=orthogonalEdgeStyle;html=1;verticalAlign=bottom;endArrow=open;endSize=8;strokeColor=#ff0000;rounded=0;fontSize=15;entryX=0.5;entryY=0;entryDx=0;entryDy=0;" edge="1" parent="1" source="MiAkfj99nP1WBbbSjiAf-3" target="MiAkfj99nP1WBbbSjiAf-5">
          <mxGeometry relative="1" as="geometry">
            <mxPoint x="255" y="320" as="targetPoint" />
          </mxGeometry>
        </mxCell>
        <mxCell id="MiAkfj99nP1WBbbSjiAf-5" value="计算在线时长" style="rounded=1;whiteSpace=wrap;html=1;arcSize=40;fontColor=#000000;fillColor=#ffffc0;strokeColor=#ff0000;fontSize=15;" vertex="1" parent="1">
          <mxGeometry x="195" y="290" width="120" height="40" as="geometry" />
        </mxCell>
        <mxCell id="MiAkfj99nP1WBbbSjiAf-6" value="" style="edgeStyle=orthogonalEdgeStyle;html=1;verticalAlign=bottom;endArrow=open;endSize=8;strokeColor=#ff0000;rounded=0;entryX=0.5;entryY=0;entryDx=0;entryDy=0;fontSize=15;" edge="1" parent="1" source="MiAkfj99nP1WBbbSjiAf-5" target="MiAkfj99nP1WBbbSjiAf-7">
          <mxGeometry relative="1" as="geometry">
            <mxPoint x="255" y="390" as="targetPoint" />
          </mxGeometry>
        </mxCell>
        <mxCell id="MiAkfj99nP1WBbbSjiAf-7" value="" style="rhombus;whiteSpace=wrap;html=1;fontColor=#000000;fillColor=#ffffc0;strokeColor=#ff0000;fontSize=15;" vertex="1" parent="1">
          <mxGeometry x="215" y="380" width="80" height="40" as="geometry" />
        </mxCell>
        <mxCell id="MiAkfj99nP1WBbbSjiAf-8" value="获取acct-session-id" style="rounded=1;whiteSpace=wrap;html=1;arcSize=40;fontColor=#000000;fillColor=#ffffc0;strokeColor=#ff0000;fontSize=15;" vertex="1" parent="1">
          <mxGeometry x="369.98" y="380" width="120" height="40" as="geometry" />
        </mxCell>
        <mxCell id="MiAkfj99nP1WBbbSjiAf-9" value="发送计费结束&lt;br&gt;报文" style="rounded=1;whiteSpace=wrap;html=1;arcSize=40;fontColor=#000000;fillColor=#ffffc0;strokeColor=#ff0000;fontSize=15;" vertex="1" parent="1">
          <mxGeometry x="195" y="471" width="120" height="40" as="geometry" />
        </mxCell>
        <mxCell id="MiAkfj99nP1WBbbSjiAf-10" value="" style="edgeStyle=orthogonalEdgeStyle;html=1;verticalAlign=bottom;endArrow=open;endSize=8;strokeColor=#ff0000;rounded=0;exitX=0.5;exitY=1;exitDx=0;exitDy=0;fontSize=15;" edge="1" parent="1" source="MiAkfj99nP1WBbbSjiAf-7" target="MiAkfj99nP1WBbbSjiAf-9">
          <mxGeometry relative="1" as="geometry">
            <mxPoint x="265" y="409" as="targetPoint" />
            <mxPoint x="80" y="579" as="sourcePoint" />
          </mxGeometry>
        </mxCell>
        <mxCell id="MiAkfj99nP1WBbbSjiAf-11" value="计费信息是否超过预定义的数值" style="edgeLabel;html=1;align=center;verticalAlign=middle;resizable=0;points=[];fontSize=15;" vertex="1" connectable="0" parent="MiAkfj99nP1WBbbSjiAf-10">
          <mxGeometry x="-0.1582" y="2" relative="1" as="geometry">
            <mxPoint x="-127" y="-89" as="offset" />
          </mxGeometry>
        </mxCell>
        <mxCell id="MiAkfj99nP1WBbbSjiAf-12" value="NO" style="edgeLabel;html=1;align=center;verticalAlign=middle;resizable=0;points=[];fontSize=15;" vertex="1" connectable="0" parent="MiAkfj99nP1WBbbSjiAf-10">
          <mxGeometry x="-0.0386" relative="1" as="geometry">
            <mxPoint x="-35" y="-4" as="offset" />
          </mxGeometry>
        </mxCell>
        <mxCell id="MiAkfj99nP1WBbbSjiAf-13" value="" style="edgeStyle=orthogonalEdgeStyle;html=1;verticalAlign=bottom;endArrow=open;endSize=8;strokeColor=#ff0000;rounded=0;fontSize=15;" edge="1" parent="1">
          <mxGeometry relative="1" as="geometry">
            <mxPoint x="370" y="400" as="targetPoint" />
            <mxPoint x="300" y="399.5" as="sourcePoint" />
            <Array as="points">
              <mxPoint x="295" y="399.5" />
            </Array>
          </mxGeometry>
        </mxCell>
        <mxCell id="MiAkfj99nP1WBbbSjiAf-14" value="Yes" style="edgeLabel;html=1;align=center;verticalAlign=middle;resizable=0;points=[];fontSize=15;" vertex="1" connectable="0" parent="MiAkfj99nP1WBbbSjiAf-13">
          <mxGeometry x="0.021" y="4" relative="1" as="geometry">
            <mxPoint x="-26" y="-6" as="offset" />
          </mxGeometry>
        </mxCell>
        <mxCell id="MiAkfj99nP1WBbbSjiAf-16" value="" style="ellipse;html=1;shape=endState;fillColor=#000000;strokeColor=#ff0000;fontSize=15;" vertex="1" parent="1">
          <mxGeometry x="414.98" y="700" width="30" height="30" as="geometry" />
        </mxCell>
        <mxCell id="MiAkfj99nP1WBbbSjiAf-21" value="获取acct-interim-interval" style="rounded=1;whiteSpace=wrap;html=1;arcSize=40;fontColor=#000000;fillColor=#ffffc0;strokeColor=#ff0000;fontSize=15;" vertex="1" parent="1">
          <mxGeometry x="352.47" y="470" width="155.02" height="41" as="geometry" />
        </mxCell>
        <mxCell id="MiAkfj99nP1WBbbSjiAf-23" value="启动计费定时器" style="rounded=1;whiteSpace=wrap;html=1;arcSize=40;fontColor=#000000;fillColor=#ffffc0;strokeColor=#ff0000;fontSize=15;" vertex="1" parent="1">
          <mxGeometry x="369.98" y="549.5" width="120" height="41" as="geometry" />
        </mxCell>
        <mxCell id="MiAkfj99nP1WBbbSjiAf-24" value="" style="edgeStyle=orthogonalEdgeStyle;html=1;verticalAlign=bottom;endArrow=open;endSize=8;strokeColor=#ff0000;rounded=0;exitX=0.5;exitY=1;exitDx=0;exitDy=0;entryX=0.5;entryY=0;entryDx=0;entryDy=0;fontSize=15;" edge="1" parent="1" source="MiAkfj99nP1WBbbSjiAf-8">
          <mxGeometry relative="1" as="geometry">
            <mxPoint x="429.98" y="470" as="targetPoint" />
            <mxPoint x="429.98" y="419" as="sourcePoint" />
            <Array as="points" />
          </mxGeometry>
        </mxCell>
        <mxCell id="MiAkfj99nP1WBbbSjiAf-37" value="" style="edgeStyle=orthogonalEdgeStyle;html=1;verticalAlign=bottom;endArrow=open;endSize=8;strokeColor=#ff0000;rounded=0;exitX=0.5;exitY=1;exitDx=0;exitDy=0;fontSize=15;" edge="1" parent="1" source="MiAkfj99nP1WBbbSjiAf-41" target="MiAkfj99nP1WBbbSjiAf-16">
          <mxGeometry relative="1" as="geometry">
            <mxPoint x="240" y="750" as="targetPoint" />
            <mxPoint x="240" y="680" as="sourcePoint" />
            <Array as="points">
              <mxPoint x="255" y="680" />
              <mxPoint x="255" y="895" />
            </Array>
          </mxGeometry>
        </mxCell>
        <mxCell id="MiAkfj99nP1WBbbSjiAf-41" value="去授权" style="rounded=1;whiteSpace=wrap;html=1;arcSize=40;fontColor=#000000;fillColor=#ffffc0;strokeColor=#ff0000;fontSize=15;" vertex="1" parent="1">
          <mxGeometry x="195" y="550.5" width="120" height="40" as="geometry" />
        </mxCell>
        <mxCell id="MiAkfj99nP1WBbbSjiAf-45" value="发送实时&lt;br&gt;计费报文" style="rounded=1;whiteSpace=wrap;html=1;arcSize=40;fontColor=#000000;fillColor=#ffffc0;strokeColor=#ff0000;fontSize=15;" vertex="1" parent="1">
          <mxGeometry x="369.98" y="630" width="120" height="41" as="geometry" />
        </mxCell>
        <mxCell id="MiAkfj99nP1WBbbSjiAf-48" value="" style="edgeStyle=orthogonalEdgeStyle;html=1;verticalAlign=bottom;endArrow=open;endSize=8;strokeColor=#ff0000;rounded=0;entryX=0.5;entryY=0;entryDx=0;entryDy=0;fontSize=15;exitX=0.5;exitY=1;exitDx=0;exitDy=0;" edge="1" parent="1" source="MiAkfj99nP1WBbbSjiAf-21">
          <mxGeometry relative="1" as="geometry">
            <mxPoint x="429.78000000000003" y="550.5" as="targetPoint" />
            <mxPoint x="430" y="510" as="sourcePoint" />
            <Array as="points" />
          </mxGeometry>
        </mxCell>
        <mxCell id="MiAkfj99nP1WBbbSjiAf-50" value="" style="edgeStyle=orthogonalEdgeStyle;html=1;verticalAlign=bottom;endArrow=open;endSize=8;strokeColor=#ff0000;rounded=0;entryX=0.5;entryY=0;entryDx=0;entryDy=0;fontSize=15;" edge="1" parent="1">
          <mxGeometry relative="1" as="geometry">
            <mxPoint x="429.74" y="630" as="targetPoint" />
            <mxPoint x="430" y="590" as="sourcePoint" />
            <Array as="points">
              <mxPoint x="430" y="610" />
              <mxPoint x="430" y="610" />
            </Array>
          </mxGeometry>
        </mxCell>
        <mxCell id="MiAkfj99nP1WBbbSjiAf-51" value="" style="edgeStyle=orthogonalEdgeStyle;html=1;verticalAlign=bottom;endArrow=open;endSize=8;strokeColor=#ff0000;rounded=0;entryX=0.5;entryY=0;entryDx=0;entryDy=0;fontSize=15;exitX=0.5;exitY=1;exitDx=0;exitDy=0;" edge="1" parent="1">
          <mxGeometry relative="1" as="geometry">
            <mxPoint x="254.88000000000002" y="550.5" as="targetPoint" />
            <mxPoint x="255.1" y="511" as="sourcePoint" />
            <Array as="points">
              <mxPoint x="255.25" y="531" />
              <mxPoint x="255.25" y="531" />
            </Array>
          </mxGeometry>
        </mxCell>
        <mxCell id="MiAkfj99nP1WBbbSjiAf-52" value="" style="edgeStyle=orthogonalEdgeStyle;html=1;verticalAlign=bottom;endArrow=open;endSize=8;strokeColor=#ff0000;rounded=0;entryX=0.5;entryY=0;entryDx=0;entryDy=0;fontSize=15;" edge="1" parent="1">
          <mxGeometry relative="1" as="geometry">
            <mxPoint x="429.69" y="700" as="targetPoint" />
            <mxPoint x="430" y="670" as="sourcePoint" />
            <Array as="points">
              <mxPoint x="429.95" y="680" />
              <mxPoint x="429.95" y="680" />
            </Array>
          </mxGeometry>
        </mxCell>
      </root>
    </mxGraphModel>
  </diagram>
</mxfile>
